<svg width="32" height="32" viewBox="0 0 32 32" fill="none" xmlns="http://www.w3.org/2000/svg">
<rect width="32" height="32" rx="6" fill="black"/>
<path fill-rule="evenodd" clip-rule="evenodd" d="M20.5436 26.6336C20.8162 27.4497 21.5802 28 22.4406 28H25.2251C26.5903 28 27.5542 26.6626 27.1225 25.3675L20.9117 6.73509C20.3672 5.10172 18.8387 4 17.117 4H14.883C13.1613 4 11.6328 5.10172 11.0883 6.73509L4.87749 25.3675C4.4458 26.6626 5.40974 28 6.77485 28H9.55666C10.4184 28 11.1833 27.448 11.4548 26.6302L12.2052 24.3698C12.4767 23.552 13.2416 23 14.1033 23H17.8894C18.7498 23 19.5138 23.5503 19.7864 24.3664L20.5436 26.6336Z" stroke="#FFF7ED" stroke-width="1.5"/>
<path d="M14.6813 13.956L13.6099 17.1704C13.3098 18.0705 13.9798 19 14.9285 19H17.0715C18.0202 19 18.6902 18.0705 18.3901 17.1704L17.3187 13.956C16.8963 12.6888 15.1037 12.6888 14.6813 13.956Z" fill="#FFF7ED"/>
<path fill-rule="evenodd" clip-rule="evenodd" d="M11.5 26.3686C11.8649 26.7573 12.3833 27 12.9584 27H18.9584C19.5322 27 20.0496 26.7583 20.4144 26.3712L19.7448 24.3664C19.4722 23.5503 18.7082 23 17.8478 23H14.0617C13.2 23 12.4351 23.552 12.1636 24.3698L11.5 26.3686Z" fill="#FFF7ED"/>
</svg>
